<?xml version="1.0" encoding="UTF-8"?>
<svg xmlns="http://www.w3.org/2000/svg" xmlns:xlink="http://www.w3.org/1999/xlink" width="90pt" height="60pt" viewBox="0 0 90 60" version="1.1">
<g id="surface1">
<path style=" stroke:none;fill-rule:nonzero;fill:rgb(14.509804%,18.431373%,24.313725%);fill-opacity:1;" d="M 30.40625 24.527344 C 30.40625 25.351562 30.496094 26.019531 30.648438 26.507812 C 30.828125 26.996094 31.050781 27.53125 31.363281 28.109375 C 31.472656 28.285156 31.515625 28.464844 31.515625 28.621094 C 31.515625 28.84375 31.382812 29.066406 31.09375 29.289062 L 29.691406 30.222656 C 29.492188 30.355469 29.292969 30.421875 29.113281 30.421875 C 28.890625 30.421875 28.671875 30.3125 28.449219 30.109375 C 28.136719 29.777344 27.867188 29.421875 27.648438 29.066406 C 27.425781 28.6875 27.203125 28.265625 26.957031 27.753906 C 25.222656 29.800781 23.042969 30.824219 20.417969 30.824219 C 18.546875 30.824219 17.058594 30.289062 15.96875 29.222656 C 14.875 28.152344 14.320312 26.730469 14.320312 24.949219 C 14.320312 23.058594 14.988281 21.523438 16.34375 20.367188 C 17.703125 19.210938 19.503906 18.632812 21.796875 18.632812 C 22.550781 18.632812 23.332031 18.699219 24.152344 18.808594 C 24.976562 18.921875 25.824219 19.097656 26.710938 19.300781 L 26.710938 17.675781 C 26.710938 15.984375 26.355469 14.804688 25.667969 14.117188 C 24.953125 13.425781 23.753906 13.09375 22.039062 13.09375 C 21.261719 13.09375 20.460938 13.179688 19.636719 13.382812 C 18.816406 13.582031 18.015625 13.828125 17.234375 14.136719 C 16.878906 14.292969 16.613281 14.382812 16.457031 14.425781 C 16.300781 14.472656 16.1875 14.492188 16.101562 14.492188 C 15.789062 14.492188 15.632812 14.269531 15.632812 13.804688 L 15.632812 12.714844 C 15.632812 12.359375 15.679688 12.089844 15.789062 11.933594 C 15.898438 11.78125 16.101562 11.625 16.410156 11.46875 C 17.191406 11.066406 18.125 10.734375 19.214844 10.46875 C 20.304688 10.179688 21.460938 10.042969 22.683594 10.042969 C 25.332031 10.042969 27.269531 10.644531 28.515625 11.847656 C 29.738281 13.046875 30.359375 14.871094 30.359375 17.320312 L 30.359375 24.527344 Z M 21.371094 27.910156 C 22.105469 27.910156 22.863281 27.773438 23.664062 27.507812 C 24.464844 27.242188 25.175781 26.75 25.777344 26.085938 C 26.132812 25.660156 26.402344 25.195312 26.535156 24.660156 C 26.667969 24.125 26.757812 23.480469 26.757812 22.726562 L 26.757812 21.789062 C 26.113281 21.636719 25.421875 21.5 24.710938 21.414062 C 24 21.324219 23.308594 21.277344 22.617188 21.277344 C 21.128906 21.277344 20.039062 21.570312 19.304688 22.167969 C 18.570312 22.769531 18.214844 23.613281 18.214844 24.726562 C 18.214844 25.773438 18.480469 26.550781 19.035156 27.085938 C 19.570312 27.640625 20.351562 27.910156 21.371094 27.910156 Z M 39.238281 30.3125 C 38.835938 30.3125 38.570312 30.246094 38.390625 30.089844 C 38.214844 29.957031 38.058594 29.644531 37.925781 29.222656 L 32.695312 12.023438 C 32.5625 11.578125 32.496094 11.289062 32.496094 11.132812 C 32.496094 10.777344 32.675781 10.578125 33.03125 10.578125 L 35.210938 10.578125 C 35.632812 10.578125 35.921875 10.644531 36.078125 10.800781 C 36.257812 10.933594 36.390625 11.246094 36.523438 11.667969 L 40.261719 26.394531 L 43.730469 11.667969 C 43.84375 11.222656 43.976562 10.933594 44.152344 10.800781 C 44.332031 10.667969 44.644531 10.578125 45.042969 10.578125 L 46.824219 10.578125 C 47.246094 10.578125 47.535156 10.644531 47.714844 10.800781 C 47.890625 10.933594 48.046875 11.246094 48.136719 11.667969 L 51.652344 26.574219 L 55.5 11.667969 C 55.632812 11.222656 55.789062 10.933594 55.945312 10.800781 C 56.121094 10.667969 56.410156 10.578125 56.8125 10.578125 L 58.882812 10.578125 C 59.238281 10.578125 59.4375 10.757812 59.4375 11.132812 C 59.4375 11.246094 59.414062 11.355469 59.394531 11.492188 C 59.371094 11.625 59.328125 11.800781 59.238281 12.046875 L 53.875 29.242188 C 53.742188 29.6875 53.585938 29.976562 53.410156 30.109375 C 53.230469 30.246094 52.941406 30.332031 52.5625 30.332031 L 50.648438 30.332031 C 50.226562 30.332031 49.9375 30.265625 49.761719 30.109375 C 49.582031 29.957031 49.425781 29.667969 49.335938 29.222656 L 45.890625 14.871094 L 42.464844 29.199219 C 42.351562 29.644531 42.21875 29.933594 42.039062 30.089844 C 41.863281 30.246094 41.550781 30.3125 41.152344 30.3125 Z M 67.824219 30.914062 C 66.667969 30.914062 65.511719 30.777344 64.398438 30.511719 C 63.285156 30.246094 62.417969 29.957031 61.839844 29.621094 C 61.484375 29.421875 61.238281 29.199219 61.152344 29 C 61.0625 28.796875 61.015625 28.578125 61.015625 28.375 L 61.015625 27.242188 C 61.015625 26.773438 61.195312 26.550781 61.527344 26.550781 C 61.664062 26.550781 61.796875 26.574219 61.929688 26.617188 C 62.0625 26.664062 62.261719 26.75 62.484375 26.839844 C 63.242188 27.175781 64.066406 27.441406 64.933594 27.621094 C 65.824219 27.796875 66.691406 27.886719 67.578125 27.886719 C 68.980469 27.886719 70.070312 27.640625 70.828125 27.152344 C 71.585938 26.664062 71.984375 25.949219 71.984375 25.039062 C 71.984375 24.417969 71.785156 23.90625 71.382812 23.480469 C 70.984375 23.058594 70.226562 22.679688 69.136719 22.324219 L 65.910156 21.324219 C 64.289062 20.8125 63.085938 20.054688 62.351562 19.054688 C 61.617188 18.074219 61.238281 16.984375 61.238281 15.828125 C 61.238281 14.894531 61.441406 14.070312 61.839844 13.359375 C 62.242188 12.648438 62.773438 12.023438 63.441406 11.535156 C 64.109375 11.023438 64.867188 10.644531 65.753906 10.378906 C 66.644531 10.109375 67.578125 10 68.558594 10 C 69.046875 10 69.558594 10.023438 70.050781 10.089844 C 70.5625 10.15625 71.027344 10.246094 71.496094 10.332031 C 71.941406 10.445312 72.363281 10.554688 72.761719 10.691406 C 73.164062 10.824219 73.476562 10.957031 73.699219 11.089844 C 74.007812 11.269531 74.230469 11.445312 74.363281 11.644531 C 74.5 11.824219 74.566406 12.070312 74.566406 12.378906 L 74.566406 13.425781 C 74.566406 13.894531 74.386719 14.136719 74.054688 14.136719 C 73.875 14.136719 73.585938 14.050781 73.207031 13.871094 C 71.941406 13.292969 70.515625 13.003906 68.9375 13.003906 C 67.667969 13.003906 66.667969 13.203125 65.976562 13.625 C 65.289062 14.050781 64.933594 14.695312 64.933594 15.605469 C 64.933594 16.230469 65.15625 16.761719 65.601562 17.1875 C 66.042969 17.609375 66.867188 18.03125 68.046875 18.410156 L 71.207031 19.410156 C 72.808594 19.921875 73.964844 20.632812 74.65625 21.546875 C 75.34375 22.457031 75.679688 23.503906 75.679688 24.660156 C 75.679688 25.617188 75.476562 26.484375 75.097656 27.242188 C 74.699219 27.996094 74.164062 28.664062 73.476562 29.199219 C 72.785156 29.753906 71.960938 30.15625 71.007812 30.445312 C 70.003906 30.757812 68.960938 30.914062 67.824219 30.914062 Z M 67.824219 30.914062 "/>
<path style=" stroke:none;fill-rule:evenodd;fill:rgb(100%,60%,0%);fill-opacity:1;" d="M 72.027344 41.722656 C 64.710938 47.128906 54.074219 50 44.933594 50 C 32.117188 50 20.570312 45.261719 11.851562 37.386719 C 11.160156 36.761719 11.785156 35.917969 12.609375 36.40625 C 22.039062 41.878906 33.675781 45.195312 45.710938 45.195312 C 53.832031 45.195312 62.753906 43.503906 70.960938 40.035156 C 72.183594 39.476562 73.230469 40.835938 72.027344 41.722656 Z M 72.027344 41.722656 "/>
<path style=" stroke:none;fill-rule:evenodd;fill:rgb(100%,60%,0%);fill-opacity:1;" d="M 75.078125 38.253906 C 74.144531 37.050781 68.890625 37.675781 66.511719 37.964844 C 65.800781 38.054688 65.6875 37.429688 66.335938 36.964844 C 70.515625 34.027344 77.390625 34.871094 78.191406 35.851562 C 78.992188 36.851562 77.96875 43.726562 74.054688 47.019531 C 73.453125 47.53125 72.875 47.261719 73.140625 46.597656 C 74.03125 44.394531 76.011719 39.433594 75.078125 38.253906 Z M 75.078125 38.253906 "/>
</g>
</svg>
